<svg width="32" height="32" viewBox="0 0 32 32" fill="none" xmlns="http://www.w3.org/2000/svg">
  <!-- Background circle -->
  <circle cx="16" cy="16" r="16" fill="#2563eb"/>
  
  <!-- Book icon -->
  <path d="M8 12C8 10.8954 8.89543 10 10 10H22C23.1046 10 24 10.8954 24 12V20C24 21.1046 23.1046 22 22 22H10C8.89543 22 8 21.1046 8 20V12Z" fill="white"/>
  
  <!-- Book pages -->
  <path d="M9 13H23V19H9V13Z" fill="#f1f5f9"/>
  
  <!-- Text lines -->
  <rect x="11" y="14" width="10" height="1" fill="#64748b"/>
  <rect x="11" y="16" width="8" height="1" fill="#64748b"/>
  <rect x="11" y="18" width="6" height="1" fill="#64748b"/>
  
  <!-- Graduation cap -->
  <path d="M16 6L24 10V12L16 8L8 12V10L16 6Z" fill="white"/>
  <path d="M16 8L24 12V14L16 10L8 14V12L16 8Z" fill="#f1f5f9"/>
</svg>
